<svg width="180.1" height="50.102" viewBox="0 0 230.1 90.102" xmlns="http://www.w3.org/2000/svg"><g id="svgGroup" stroke-linecap="round" fill-rule="evenodd" font-size="9pt" stroke="#000" stroke-width="0.25mm" fill="#000" style="stroke:#000;stroke-width:0.25mm;fill:#000"><path d="M 32.1 12.202 L 32.6 9.602 A 6.084 6.084 0 0 0 31.861 6.992 Q 30.259 4.202 25.3 4.202 Q 21.3 4.202 18.35 7.052 A 11.885 11.885 0 0 0 16.732 8.955 Q 15.4 10.936 15.4 13.052 Q 15.4 16.202 18.05 18.552 A 25.795 25.795 0 0 0 21.379 21.038 A 33.224 33.224 0 0 0 24.45 22.752 Q 28.2 24.602 31.95 26.752 Q 35.7 28.902 38.35 32.302 Q 41 35.702 41 40.002 A 18.116 18.116 0 0 1 39.8 46.721 Q 38.155 50.88 34.254 53.814 A 20.633 20.633 0 0 1 34 54.002 Q 27 59.102 18.9 59.102 A 36.964 36.964 0 0 1 13.205 58.687 Q 8.775 57.996 5.4 56.152 A 11.228 11.228 0 0 1 2.271 53.701 Q 0.231 51.358 0.023 47.979 A 12.694 12.694 0 0 1 0 47.202 A 8.695 8.695 0 0 1 1.999 41.647 A 11.006 11.006 0 0 1 2.2 41.402 A 7.129 7.129 0 0 1 6.344 39.008 A 10.726 10.726 0 0 1 8.5 38.802 Q 10.1 38.802 11.4 39.702 Q 12.7 40.602 13 42.102 Q 13 43.494 11.45 43.594 A 3.874 3.874 0 0 1 11.2 43.602 A 5.803 5.803 0 0 0 9.922 43.73 Q 8.141 44.134 7.855 45.812 A 4.105 4.105 0 0 0 7.8 46.502 A 7.401 7.401 0 0 0 9.262 50.66 A 11.192 11.192 0 0 0 10.95 52.502 A 10.02 10.02 0 0 0 14.76 54.569 Q 16.862 55.202 19.55 55.202 Q 25.1 55.202 29.05 51.402 A 12.677 12.677 0 0 0 32.244 46.621 A 12.705 12.705 0 0 0 33 42.202 A 9.078 9.078 0 0 0 30.937 36.444 A 12.039 12.039 0 0 0 30.3 35.702 A 24.387 24.387 0 0 0 25.186 31.551 A 28.322 28.322 0 0 0 23.8 30.752 Q 20 28.702 16.15 26.602 A 25.377 25.377 0 0 1 11.21 23.118 A 22.699 22.699 0 0 1 9.6 21.502 A 10.622 10.622 0 0 1 7.536 18.202 A 9.677 9.677 0 0 1 6.9 14.702 A 12.158 12.158 0 0 1 10.994 5.318 A 16.12 16.12 0 0 1 12.65 4.002 Q 18.4 0.002 25.7 0.002 A 20.757 20.757 0 0 1 31.473 0.783 A 18.318 18.318 0 0 1 34.6 2.002 A 8.578 8.578 0 0 1 36.762 3.499 A 6.375 6.375 0 0 1 38.7 8.102 A 7.937 7.937 0 0 1 38.502 9.92 A 5.802 5.802 0 0 1 37.5 12.102 A 3.797 3.797 0 0 1 34.749 13.677 A 4.876 4.876 0 0 1 34.25 13.702 Q 32.2 13.702 32.1 12.202 Z M 180.6 54.302 L 181.2 42.802 A 109.353 109.353 0 0 1 179.492 47.067 Q 177.355 52.071 175.45 54.802 A 9.67 9.67 0 0 1 173.281 57.08 A 7.832 7.832 0 0 1 168.5 58.602 A 8.733 8.733 0 0 1 161.914 55.67 A 12.424 12.424 0 0 1 161.25 54.902 Q 158.488 51.438 158.312 44.118 A 42.216 42.216 0 0 1 158.3 43.102 A 24.375 24.375 0 0 1 160.145 33.557 A 23.251 23.251 0 0 1 162.85 28.802 A 15.861 15.861 0 0 1 167.017 24.788 Q 170.4 22.606 174.783 22.602 A 17.522 17.522 0 0 1 174.8 22.602 A 4.574 4.574 0 0 1 175.956 22.763 Q 177.02 23.042 178.316 23.803 A 15.338 15.338 0 0 1 178.4 23.852 Q 180.5 25.102 182.1 26.902 Q 182.361 26.031 184.368 24.288 A 33.894 33.894 0 0 1 185 23.752 A 19.294 19.294 0 0 1 186.156 22.862 Q 187.288 22.062 188.149 21.77 A 2.829 2.829 0 0 1 189.05 21.602 A 0.969 0.969 0 0 1 189.887 22.128 Q 190.401 22.948 190.484 25.05 A 21.708 21.708 0 0 1 190.5 25.902 A 17.457 17.457 0 0 1 190.021 30.071 A 14.19 14.19 0 0 1 188.7 33.502 Q 187.7 40.202 187.6 45.902 Q 196.472 34.676 197.845 33.04 A 7.244 7.244 0 0 1 198.05 32.802 A 3.892 3.892 0 0 1 198.363 32.498 Q 198.701 32.208 198.994 32.13 A 0.805 0.805 0 0 1 199.2 32.102 Q 199.994 32.102 200.157 32.732 A 1.473 1.473 0 0 1 200.2 33.102 Q 200.2 33.702 199.8 34.402 A 98.166 98.166 0 0 1 197.886 37.095 Q 195.158 40.82 190.344 46.934 A 900.719 900.719 0 0 1 187.2 50.902 A 13376.143 13376.143 0 0 0 186.941 56.063 Q 186.644 61.994 186.485 65.314 A 1234.775 1234.775 0 0 0 186.4 67.102 Q 185.9 79.802 182.85 84.952 A 9.923 9.923 0 0 1 176.705 89.521 Q 174.62 90.102 172 90.102 A 10.882 10.882 0 0 1 165.789 88.147 A 13.2 13.2 0 0 1 165.65 88.052 A 6.357 6.357 0 0 1 163.266 84.8 Q 162.7 83.164 162.7 80.952 A 14.788 14.788 0 0 1 163.835 75.394 Q 164.611 73.469 165.918 71.509 A 27.558 27.558 0 0 1 166.55 70.602 Q 169.453 66.606 175.964 59.371 A 463.619 463.619 0 0 1 180.6 54.302 Z M 97.5 53.702 A 6.7 6.7 0 0 0 101.837 52.087 Q 102.872 51.241 103.8 49.952 A 23.004 23.004 0 0 0 106.454 45.065 A 30.668 30.668 0 0 0 107.8 40.802 Q 104.2 39.702 102.3 36.952 Q 100.4 34.202 100.4 30.602 A 11.831 11.831 0 0 1 100.922 27.031 A 10.244 10.244 0 0 1 102.25 24.302 A 5.919 5.919 0 0 1 106.547 21.668 A 8.162 8.162 0 0 1 107.6 21.602 Q 109.52 21.602 110.604 23.816 A 7.736 7.736 0 0 1 110.8 24.252 A 14.351 14.351 0 0 1 111.782 28.106 A 18.039 18.039 0 0 1 111.9 30.202 Q 111.9 33.502 111.4 36.802 Q 112.9 37.402 114.6 37.402 Q 118.192 37.402 121.529 34.349 A 17.808 17.808 0 0 0 122.1 33.802 A 22.16 22.16 0 0 1 122.735 33.19 Q 123.696 32.303 124.234 32.078 A 0.843 0.843 0 0 1 124.55 32.002 A 0.545 0.545 0 0 1 125.07 32.308 Q 125.2 32.555 125.2 33.002 A 2 2 0 0 1 125.053 33.719 Q 124.822 34.319 124.229 35.03 A 9.445 9.445 0 0 1 123.9 35.402 A 17.117 17.117 0 0 1 111.502 41.279 A 21.547 21.547 0 0 1 110.5 41.302 Q 108.6 48.602 104.6 53.602 Q 100.6 58.602 94.8 58.602 A 6.595 6.595 0 0 1 89.769 56.382 A 9.041 9.041 0 0 1 89.2 55.702 Q 85.5 51.002 85.5 41.902 A 49.839 49.839 0 0 1 85.549 39.789 Q 85.656 37.271 86 33.902 A 72.469 72.469 0 0 1 86.193 32.198 Q 86.622 28.796 87.15 27.902 Q 87.643 27.067 89.231 25.944 A 24.452 24.452 0 0 1 90.35 25.202 A 26.65 26.65 0 0 1 91.391 24.579 Q 93.119 23.602 93.9 23.602 Q 95.292 23.602 95.392 25.152 A 3.874 3.874 0 0 1 95.4 25.402 Q 95.4 30.502 92.8 36.502 A 74.265 74.265 0 0 0 92.962 41.539 Q 93.139 44.136 93.509 46.388 A 37.912 37.912 0 0 0 93.95 48.652 A 17.449 17.449 0 0 0 94.447 50.432 Q 95.043 52.169 95.867 52.984 A 2.27 2.27 0 0 0 97.5 53.702 Z M 72.6 58.454 A 15.187 15.187 0 0 0 74.8 58.602 Q 80.2 58.602 88.1 41.802 A 73.486 73.486 0 0 0 88.295 41.388 Q 90.3 37.103 90.819 34.508 A 8.302 8.302 0 0 0 91 32.902 A 1.729 1.729 0 0 0 90.995 32.77 Q 90.958 32.285 90.634 32.152 A 0.746 0.746 0 0 0 90.35 32.102 Q 89.781 32.102 87.452 37.079 A 142.796 142.796 0 0 0 86.75 38.602 Q 84.998 42.461 83.229 45.492 A 46.048 46.048 0 0 1 80.8 49.252 Q 77.8 53.402 76.1 53.502 Q 75.594 53.502 75.515 51.58 A 19.016 19.016 0 0 1 75.5 50.802 A 360.34 360.34 0 0 1 75.519 46.968 Q 75.631 36.467 76.4 34.502 A 6.304 6.304 0 0 0 76.663 33.945 Q 77.205 32.646 77.65 30.302 Q 78.08 28.036 78.174 26.93 A 6.385 6.385 0 0 0 78.2 26.402 A 18.206 18.206 0 0 0 78.195 25.967 Q 78.114 22.602 76.75 22.602 A 2.921 2.921 0 0 0 76.421 22.621 Q 75.073 22.774 73.25 24.152 A 30.318 30.318 0 0 0 72.736 24.549 Q 71.656 25.403 70.985 26.109 A 7.006 7.006 0 0 0 70.4 26.802 A 26.399 26.399 0 0 0 69.597 25.994 Q 67.484 23.958 65.603 23.144 A 6.045 6.045 0 0 0 63.2 22.602 A 17.522 17.522 0 0 0 63.183 22.602 Q 58.8 22.606 55.417 24.788 A 15.861 15.861 0 0 0 51.25 28.802 Q 46.7 35.002 46.7 43.052 A 41.82 41.82 0 0 0 46.705 43.696 Q 46.821 51.254 49.7 54.852 A 12.311 12.311 0 0 0 51.351 56.568 Q 53.729 58.58 56.638 58.602 A 8.512 8.512 0 0 0 56.7 58.602 A 8.223 8.223 0 0 0 60.541 57.713 A 8.55 8.55 0 0 0 63.25 55.452 A 17.049 17.049 0 0 0 63.624 54.972 Q 65.213 52.86 66.82 49.452 A 66.239 66.239 0 0 0 68.4 45.802 A 335.754 335.754 0 0 0 68.317 47.945 Q 68.2 51.27 68.2 53.452 A 21.083 21.083 0 0 0 68.205 53.913 Q 68.243 55.672 68.586 56.498 A 1.536 1.536 0 0 0 68.9 57.002 A 6.228 6.228 0 0 0 70.578 57.944 Q 71.481 58.289 72.6 58.454 Z M 145.9 58.454 A 15.187 15.187 0 0 0 148.1 58.602 Q 153.5 58.602 161.4 41.802 A 73.486 73.486 0 0 0 161.595 41.388 Q 163.6 37.103 164.119 34.508 A 8.302 8.302 0 0 0 164.3 32.902 A 1.729 1.729 0 0 0 164.295 32.77 Q 164.258 32.285 163.934 32.152 A 0.746 0.746 0 0 0 163.65 32.102 Q 163.081 32.102 160.752 37.079 A 142.796 142.796 0 0 0 160.05 38.602 Q 158.298 42.461 156.529 45.492 A 46.048 46.048 0 0 1 154.1 49.252 Q 151.1 53.402 149.4 53.502 Q 148.894 53.502 148.815 51.58 A 19.016 19.016 0 0 1 148.8 50.802 A 360.34 360.34 0 0 1 148.819 46.968 Q 148.931 36.467 149.7 34.502 A 6.304 6.304 0 0 0 149.963 33.945 Q 150.505 32.646 150.95 30.302 Q 151.38 28.036 151.474 26.93 A 6.385 6.385 0 0 0 151.5 26.402 A 18.206 18.206 0 0 0 151.495 25.967 Q 151.414 22.602 150.05 22.602 A 2.921 2.921 0 0 0 149.721 22.621 Q 148.373 22.774 146.55 24.152 A 30.318 30.318 0 0 0 146.036 24.549 Q 144.956 25.403 144.285 26.109 A 7.006 7.006 0 0 0 143.7 26.802 A 26.399 26.399 0 0 0 142.897 25.994 Q 140.784 23.958 138.903 23.144 A 6.045 6.045 0 0 0 136.5 22.602 A 17.522 17.522 0 0 0 136.483 22.602 Q 132.1 22.606 128.717 24.788 A 15.861 15.861 0 0 0 124.55 28.802 Q 120 35.002 120 43.052 A 41.82 41.82 0 0 0 120.005 43.696 Q 120.121 51.254 123 54.852 A 12.311 12.311 0 0 0 124.651 56.568 Q 127.029 58.58 129.938 58.602 A 8.512 8.512 0 0 0 130 58.602 A 8.223 8.223 0 0 0 133.841 57.713 A 8.55 8.55 0 0 0 136.55 55.452 A 17.049 17.049 0 0 0 136.924 54.972 Q 138.513 52.86 140.12 49.452 A 66.239 66.239 0 0 0 141.7 45.802 A 335.754 335.754 0 0 0 141.617 47.945 Q 141.5 51.27 141.5 53.452 A 21.083 21.083 0 0 0 141.505 53.913 Q 141.543 55.672 141.886 56.498 A 1.536 1.536 0 0 0 142.2 57.002 A 6.228 6.228 0 0 0 143.878 57.944 Q 144.781 58.289 145.9 58.454 Z M 203.384 57.846 A 11.858 11.858 0 0 0 207.7 58.602 Q 217.4 58.602 224 47.902 Q 228.432 40.636 229.644 36.01 A 12.42 12.42 0 0 0 230.1 32.902 A 1.803 1.803 0 0 0 230.085 32.658 Q 230.036 32.299 229.827 32.172 A 0.522 0.522 0 0 0 229.55 32.102 A 0.741 0.741 0 0 0 229.405 32.116 Q 228.94 32.209 228.55 32.902 A 9.692 9.692 0 0 0 228.516 32.963 Q 228.07 33.769 227.3 35.502 A 65.561 65.561 0 0 1 225.725 38.908 A 56.274 56.274 0 0 1 220.1 48.002 A 18.165 18.165 0 0 1 218.476 49.85 A 13.969 13.969 0 0 1 215.7 52.002 A 10.017 10.017 0 0 1 213.857 52.841 A 11.033 11.033 0 0 1 210.3 53.402 A 5.929 5.929 0 0 1 206.607 52.116 A 8.917 8.917 0 0 1 205.05 50.552 A 12.177 12.177 0 0 1 203.551 48.114 A 13.459 13.459 0 0 1 202.4 43.802 A 24.966 24.966 0 0 0 205.38 43.546 A 19.174 19.174 0 0 0 214.75 39.552 A 16.746 16.746 0 0 0 215.794 38.643 A 12.144 12.144 0 0 0 219.8 29.502 A 8.58 8.58 0 0 0 219.761 28.676 A 6.057 6.057 0 0 0 217.6 24.452 Q 215.4 22.602 212 22.602 A 15.496 15.496 0 0 0 205.726 23.843 A 15.072 15.072 0 0 0 200.1 28.202 Q 195.5 33.802 195.5 44.702 Q 195.5 50.102 198.8 54.352 A 10.604 10.604 0 0 0 203.384 57.846 Z M 174.2 26.202 Q 171.4 26.202 168.25 30.552 A 16.593 16.593 0 0 0 165.1 40.464 A 20.199 20.199 0 0 0 165.1 40.552 A 31.871 31.871 0 0 0 165.295 44.188 Q 165.504 46.007 165.939 47.54 A 14.828 14.828 0 0 0 166.75 49.752 Q 167.581 51.54 168.627 52.427 A 3.435 3.435 0 0 0 170.9 53.302 Q 173.13 53.302 175.201 50.039 A 17.954 17.954 0 0 0 175.7 49.202 Q 178 45.102 181.6 35.102 A 353.741 353.741 0 0 0 181.668 33.915 Q 181.8 31.533 181.8 30.802 A 5.147 5.147 0 0 0 181.055 29.771 Q 180.146 28.772 178.5 27.752 A 14.666 14.666 0 0 0 177.077 26.968 Q 175.521 26.228 174.287 26.203 A 4.24 4.24 0 0 0 174.2 26.202 Z M 57.341 29.887 A 21.738 21.738 0 0 0 56.65 30.752 A 15.482 15.482 0 0 0 53.519 39.636 A 19.329 19.329 0 0 0 53.5 40.502 Q 53.5 46.102 55.15 49.702 A 9.793 9.793 0 0 0 56.026 51.256 Q 57.464 53.302 59.5 53.302 Q 62.612 53.302 68.48 38.631 A 187.756 187.756 0 0 0 69.2 36.802 Q 69.292 36.065 69.427 34.353 A 185.821 185.821 0 0 0 69.45 34.052 Q 69.6 32.102 69.7 31.102 A 6.579 6.579 0 0 0 68.746 29.827 Q 67.886 28.913 66.55 28.052 Q 64.3 26.602 62.6 26.602 Q 60.109 26.602 57.341 29.887 Z M 130.641 29.887 A 21.738 21.738 0 0 0 129.95 30.752 A 15.482 15.482 0 0 0 126.819 39.636 A 19.329 19.329 0 0 0 126.8 40.502 Q 126.8 46.102 128.45 49.702 A 9.793 9.793 0 0 0 129.326 51.256 Q 130.764 53.302 132.8 53.302 Q 135.912 53.302 141.78 38.631 A 187.756 187.756 0 0 0 142.5 36.802 Q 142.592 36.065 142.727 34.353 A 185.821 185.821 0 0 0 142.75 34.052 Q 142.9 32.102 143 31.102 A 6.579 6.579 0 0 0 142.046 29.827 Q 141.186 28.913 139.85 28.052 Q 137.6 26.602 135.9 26.602 Q 133.409 26.602 130.641 29.887 Z M 179.8 68.802 L 180.3 59.002 A 87.357 87.357 0 0 0 175.582 64.499 Q 171.269 70.01 169.74 74.324 A 13.181 13.181 0 0 0 168.9 78.702 A 15.845 15.845 0 0 0 169.065 81.06 Q 169.345 82.918 170.1 84.302 Q 171.3 86.502 173.4 86.502 Q 175.902 86.502 177.243 84.362 A 7.429 7.429 0 0 0 177.9 83.002 Q 179.065 79.866 179.668 70.949 A 187.442 187.442 0 0 0 179.8 68.802 Z M 208.738 39.342 A 10.289 10.289 0 0 0 211.05 37.602 Q 213.8 34.802 213.8 30.302 A 10.452 10.452 0 0 0 213.698 28.773 Q 213.42 26.904 212.385 26.211 A 2.607 2.607 0 0 0 210.9 25.802 Q 208.124 25.802 206.04 28.854 A 14.927 14.927 0 0 0 205 30.652 Q 202.6 35.502 202.4 41.402 Q 206.234 40.752 208.738 39.342 Z M 106.6 25.402 A 0.46 0.46 0 0 0 106.213 25.663 Q 105.814 26.308 105.8 28.547 A 26.263 26.263 0 0 0 105.8 28.702 A 7.618 7.618 0 0 0 106.886 32.564 Q 107.514 33.65 108.506 34.7 A 14.916 14.916 0 0 0 108.8 35.002 Q 109 33.802 109 32.602 Q 109 27.268 107.683 25.886 A 1.449 1.449 0 0 0 106.6 25.402 Z" vector-effect="non-scaling-stroke"/></g></svg>